<svg width="1127" height="247" viewBox="0 0 1127 247" fill="none" xmlns="http://www.w3.org/2000/svg">
<path d="M128.444 190.312C127.036 191.847 125.787 192.935 124.701 193.576C123.611 194.217 122.302 194.6 120.767 194.727C118.334 194.727 116.449 193.705 115.105 191.656C113.761 189.61 112.577 186.027 111.553 180.907L107.138 161.138C105.473 153.206 101.828 147.257 96.1973 143.287C90.5646 139.323 81.9942 136.829 70.4796 135.803C85.8332 134.011 96.8359 129.66 103.492 122.75C110.144 115.842 113.471 107.846 113.471 98.7596C113.471 88.0128 109.025 79.7584 100.132 74.0011C91.2366 68.2438 77.9639 65.364 60.3069 65.364C56.9776 65.364 54.0354 65.4308 51.4783 65.5554L30.1739 65.7468C17.2483 65.7468 7.52511 65.5554 1 65.1704V69.0094C5.22397 69.2675 8.32408 69.7772 10.3092 70.5449C12.2899 71.3127 13.6363 72.786 14.3395 74.9603C15.0406 77.1368 15.3945 80.6553 15.3945 85.5158V180.713C15.3945 185.578 15.0406 189.094 14.3395 191.268C13.634 193.447 12.2899 194.916 10.3092 195.684C8.32408 196.452 5.22397 196.966 1 197.219V201.058C7.52734 200.676 17.6333 200.482 31.3244 200.482C43.7337 200.482 53.3968 200.673 60.3069 201.058V197.219C55.9539 196.963 52.8203 196.452 50.902 195.684C48.9836 194.916 47.6684 193.447 46.9674 191.268C46.2619 189.094 45.9125 185.576 45.9125 180.713V136.568H58.3885C63.8877 136.568 67.8224 138.776 70.1925 143.191C72.5582 147.605 74.5745 154.486 76.2391 163.824L80.9704 190.567C82.2479 198.118 84.8518 201.63 89.1403 204.764C93.4266 207.897 98.0377 209.408 105.46 209.408C111.088 209.408 117.132 206.571 120.793 204.265C124.049 202.216 129.544 198.185 133 194.217L128.444 190.309V190.312ZM64.3194 123.158C49.4109 127.41 36.5053 121.813 35.9178 114.416V86.7865C34.9074 80.5997 40.8806 75.2897 53.6749 75.2897C66.4692 75.2897 71.4165 80.0567 71.5701 83.0299V88.6982C50.4169 94.8361 39.305 93.6321 35.9178 86.7843C39.9615 94.6291 54.3559 93.5097 65.5768 90.1092C74.7391 87.6188 83.1648 86.7042 89.8256 89.5706L89.4362 122.287C83.8502 119.323 74.8571 120.338 64.3194 123.158Z" fill="#1D1D1B" stroke="#1D1D1B" stroke-width="0.166911" stroke-miterlimit="10"/>
<path d="M53.9823 85.8517C56.9038 85.8517 59.2722 84.8533 59.2722 83.6218C59.2722 82.3902 56.9038 81.3918 53.9823 81.3918C51.0607 81.3918 48.6924 82.3902 48.6924 83.6218C48.6924 84.8533 51.0607 85.8517 53.9823 85.8517Z" fill="#1D1D1B" stroke="#1D1D1B" stroke-width="0.166911" stroke-miterlimit="10"/>
<path d="M35 86.5C39.8783 94.6186 54.5826 92.9079 72.5 87.5" stroke="black" stroke-width="2" stroke-miterlimit="10"/>
<path d="M192.8 101.765C201.31 101.765 208.833 103.492 215.37 106.945C222.03 110.275 227.272 115.64 231.095 123.04C235.042 130.44 237.015 140.183 237.015 152.27C237.015 164.357 235.042 174.1 231.095 181.5C227.272 188.9 222.03 194.265 215.37 197.595C208.833 200.925 201.31 202.59 192.8 202.59C184.29 202.59 176.705 200.925 170.045 197.595C163.385 194.265 158.143 188.9 154.32 181.5C150.497 174.1 148.585 164.357 148.585 152.27C148.585 140.183 150.497 130.44 154.32 123.04C158.143 115.64 163.385 110.275 170.045 106.945C176.705 103.492 184.29 101.765 192.8 101.765ZM192.8 105.465C187.003 105.465 182.255 109.165 178.555 116.565C174.978 123.842 173.19 135.743 173.19 152.27C173.19 168.797 174.978 180.698 178.555 187.975C182.255 195.252 187.003 198.89 192.8 198.89C198.473 198.89 203.16 195.252 206.86 187.975C210.56 180.698 212.41 168.797 212.41 152.27C212.41 135.743 210.56 123.842 206.86 116.565C203.16 109.165 198.473 105.465 192.8 105.465ZM296.923 55.145V182.795C296.923 187.975 297.848 191.49 299.698 193.34C301.672 195.19 304.94 196.115 309.503 196.115V200C307.283 199.877 303.892 199.753 299.328 199.63C294.888 199.383 290.325 199.26 285.638 199.26C281.075 199.26 276.388 199.383 271.578 199.63C266.892 199.753 263.377 199.877 261.033 200V196.115C265.597 196.115 268.803 195.19 270.653 193.34C272.627 191.49 273.613 187.975 273.613 182.795V77.345C273.613 71.795 272.75 67.725 271.023 65.135C269.297 62.4217 265.967 61.065 261.033 61.065V57.18C264.98 57.55 268.803 57.735 272.503 57.735C277.19 57.735 281.568 57.55 285.638 57.18C289.708 56.6867 293.47 56.0083 296.923 55.145ZM368.452 55.145V182.795C368.452 187.975 369.377 191.49 371.227 193.34C373.2 195.19 376.468 196.115 381.032 196.115V200C378.812 199.877 375.42 199.753 370.857 199.63C366.417 199.383 361.853 199.26 357.167 199.26C352.603 199.26 347.917 199.383 343.107 199.63C338.42 199.753 334.905 199.877 332.562 200V196.115C337.125 196.115 340.332 195.19 342.182 193.34C344.155 191.49 345.142 187.975 345.142 182.795V77.345C345.142 71.795 344.278 67.725 342.552 65.135C340.825 62.4217 337.495 61.065 332.562 61.065V57.18C336.508 57.55 340.332 57.735 344.032 57.735C348.718 57.735 353.097 57.55 357.167 57.18C361.237 56.6867 364.998 56.0083 368.452 55.145ZM449.291 101.765C460.144 101.765 468.654 105.033 474.821 111.57C480.988 118.107 484.071 128.528 484.071 142.835H421.726L421.541 139.32H462.611C462.858 133.277 462.488 127.727 461.501 122.67C460.514 117.49 458.911 113.358 456.691 110.275C454.594 107.192 451.819 105.65 448.366 105.65C443.679 105.65 439.609 108.425 436.156 113.975C432.703 119.402 430.544 128.343 429.681 140.8L430.421 141.91C430.174 143.513 429.989 145.24 429.866 147.09C429.866 148.94 429.866 150.79 429.866 152.64C429.866 161.15 431.099 168.18 433.566 173.73C436.033 179.28 439.239 183.35 443.186 185.94C447.133 188.53 451.203 189.825 455.396 189.825C458.233 189.825 461.131 189.393 464.091 188.53C467.051 187.667 469.949 186.063 472.786 183.72C475.623 181.377 478.213 178.047 480.556 173.73L484.071 175.21C482.714 179.527 480.433 183.843 477.226 188.16C474.143 192.353 470.134 195.807 465.201 198.52C460.268 201.233 454.471 202.59 447.811 202.59C439.424 202.59 432.024 200.74 425.611 197.04C419.198 193.34 414.203 187.852 410.626 180.575C407.049 173.175 405.261 164.172 405.261 153.565C405.261 142.342 407.111 132.907 410.811 125.26C414.634 117.613 419.876 111.817 426.536 107.87C433.196 103.8 440.781 101.765 449.291 101.765ZM576.567 101.765C581.747 101.765 585.878 102.443 588.962 103.8C592.168 105.157 594.758 106.883 596.732 108.98C598.952 111.323 600.493 114.345 601.357 118.045C602.343 121.745 602.837 126.74 602.837 133.03V182.795C602.837 187.975 603.762 191.49 605.612 193.34C607.585 195.19 610.853 196.115 615.417 196.115V200C613.197 199.877 609.743 199.753 605.057 199.63C600.493 199.383 596.053 199.26 591.737 199.26C587.173 199.26 582.733 199.383 578.417 199.63C574.1 199.753 570.893 199.877 568.797 200V196.115C572.743 196.115 575.518 195.19 577.122 193.34C578.725 191.49 579.527 187.975 579.527 182.795V126.74C579.527 123.41 579.218 120.45 578.602 117.86C577.985 115.147 576.752 113.05 574.902 111.57C573.052 109.967 570.4 109.165 566.947 109.165C562.877 109.165 559.238 110.275 556.032 112.495C552.948 114.715 550.482 117.798 548.632 121.745C546.905 125.568 546.042 129.885 546.042 134.695V182.795C546.042 187.975 546.843 191.49 548.447 193.34C550.05 195.19 552.825 196.115 556.772 196.115V200C554.675 199.877 551.53 199.753 547.337 199.63C543.143 199.383 538.888 199.26 534.572 199.26C530.008 199.26 525.383 199.383 520.697 199.63C516.01 199.753 512.495 199.877 510.152 200V196.115C514.715 196.115 517.922 195.19 519.772 193.34C521.745 191.49 522.732 187.975 522.732 182.795V124.52C522.732 118.97 521.807 114.9 519.957 112.31C518.23 109.597 514.962 108.24 510.152 108.24V104.355C514.098 104.725 517.922 104.91 521.622 104.91C526.185 104.91 530.502 104.725 534.572 104.355C538.765 103.862 542.588 103.183 546.042 102.32V120.82C549.125 113.79 553.38 108.857 558.807 106.02C564.233 103.183 570.153 101.765 576.567 101.765ZM698.925 101.765C702.749 101.765 705.894 102.567 708.36 104.17C710.95 105.773 712.862 107.808 714.095 110.275C715.329 112.742 715.945 115.332 715.945 118.045C715.945 122.115 714.712 125.507 712.245 128.22C709.902 130.933 706.757 132.29 702.81 132.29C699.11 132.29 696.089 131.303 693.745 129.33C691.402 127.357 690.23 124.643 690.23 121.19C690.23 118.107 690.97 115.517 692.45 113.42C694.054 111.323 695.842 109.658 697.815 108.425C696.459 107.685 694.917 107.438 693.19 107.685C690.23 107.932 687.517 108.98 685.05 110.83C682.584 112.68 680.487 114.962 678.76 117.675C677.034 120.388 675.677 123.287 674.69 126.37C673.827 129.453 673.395 132.413 673.395 135.25V180.945C673.395 186.988 674.937 191.058 678.02 193.155C681.104 195.128 685.605 196.115 691.525 196.115V200C688.689 199.877 684.557 199.753 679.13 199.63C673.827 199.383 668.277 199.26 662.48 199.26C657.67 199.26 652.86 199.383 648.05 199.63C643.364 199.753 639.849 199.877 637.505 200V196.115C642.069 196.115 645.275 195.19 647.125 193.34C649.099 191.49 650.085 187.975 650.085 182.795V124.52C650.085 118.97 649.16 114.9 647.31 112.31C645.584 109.597 642.315 108.24 637.505 108.24V104.355C641.452 104.725 645.275 104.91 648.975 104.91C653.539 104.91 657.855 104.725 661.925 104.355C666.119 103.862 669.942 103.183 673.395 102.32V121.56C674.875 118.107 676.787 114.9 679.13 111.94C681.597 108.98 684.495 106.575 687.825 104.725C691.279 102.752 694.979 101.765 698.925 101.765ZM780.947 101.765C791.8 101.765 800.31 105.033 806.477 111.57C812.643 118.107 815.727 128.528 815.727 142.835H753.382L753.197 139.32H794.267C794.513 133.277 794.143 127.727 793.157 122.67C792.17 117.49 790.567 113.358 788.347 110.275C786.25 107.192 783.475 105.65 780.022 105.65C775.335 105.65 771.265 108.425 767.812 113.975C764.358 119.402 762.2 128.343 761.337 140.8L762.077 141.91C761.83 143.513 761.645 145.24 761.522 147.09C761.522 148.94 761.522 150.79 761.522 152.64C761.522 161.15 762.755 168.18 765.222 173.73C767.688 179.28 770.895 183.35 774.842 185.94C778.788 188.53 782.858 189.825 787.052 189.825C789.888 189.825 792.787 189.393 795.747 188.53C798.707 187.667 801.605 186.063 804.442 183.72C807.278 181.377 809.868 178.047 812.212 173.73L815.727 175.21C814.37 179.527 812.088 183.843 808.882 188.16C805.798 192.353 801.79 195.807 796.857 198.52C791.923 201.233 786.127 202.59 779.467 202.59C771.08 202.59 763.68 200.74 757.267 197.04C750.853 193.34 745.858 187.852 742.282 180.575C738.705 173.175 736.917 164.172 736.917 153.565C736.917 142.342 738.767 132.907 742.467 125.26C746.29 117.613 751.532 111.817 758.192 107.87C764.852 103.8 772.437 101.765 780.947 101.765ZM865.47 57.18C869.91 57.18 873.548 58.4133 876.385 60.88C879.222 63.3467 880.64 66.615 880.64 70.685C880.64 74.755 879.222 78.0233 876.385 80.49C873.548 82.9567 869.91 84.19 865.47 84.19C861.03 84.19 857.392 82.9567 854.555 80.49C851.718 78.0233 850.3 74.755 850.3 70.685C850.3 66.615 851.718 63.3467 854.555 60.88C857.392 58.4133 861.03 57.18 865.47 57.18ZM878.42 102.32V182.795C878.42 187.975 879.345 191.49 881.195 193.34C883.168 195.19 886.437 196.115 891 196.115V200C888.78 199.877 885.388 199.753 880.825 199.63C876.262 199.383 871.637 199.26 866.95 199.26C862.387 199.26 857.762 199.383 853.075 199.63C848.388 199.753 844.873 199.877 842.53 200V196.115C847.093 196.115 850.3 195.19 852.15 193.34C854.123 191.49 855.11 187.975 855.11 182.795V124.705C855.11 119.032 854.185 114.9 852.335 112.31C850.608 109.597 847.34 108.24 842.53 108.24V104.355C846.477 104.725 850.3 104.91 854 104.91C858.563 104.91 862.88 104.725 866.95 104.355C871.143 103.862 874.967 103.183 878.42 102.32ZM961.599 101.765C966.163 101.765 970.356 102.32 974.179 103.43C978.126 104.417 981.518 105.835 984.354 107.685C987.314 109.535 989.658 111.878 991.384 114.715C993.111 117.428 993.974 120.45 993.974 123.78C993.974 127.85 992.741 131.118 990.274 133.585C987.808 136.052 984.724 137.285 981.024 137.285C977.201 137.285 974.056 136.175 971.589 133.955C969.246 131.735 968.074 128.775 968.074 125.075C968.074 121.498 969.123 118.538 971.219 116.195C973.316 113.852 975.844 112.31 978.804 111.57C977.694 109.967 975.968 108.672 973.624 107.685C971.281 106.575 968.691 106.02 965.854 106.02C962.154 106.02 958.824 107.007 955.864 108.98C952.904 110.83 950.314 113.667 948.094 117.49C945.998 121.19 944.333 125.815 943.099 131.365C941.989 136.792 941.434 143.082 941.434 150.235C941.434 160.225 942.606 168.118 944.949 173.915C947.416 179.712 950.561 183.843 954.384 186.31C958.208 188.653 962.278 189.825 966.594 189.825C969.184 189.825 971.959 189.332 974.919 188.345C977.879 187.358 980.778 185.693 983.614 183.35C986.574 181.007 989.226 177.677 991.569 173.36L995.084 174.655C993.728 178.972 991.508 183.288 988.424 187.605C985.464 191.922 981.579 195.498 976.769 198.335C971.959 201.172 966.101 202.59 959.194 202.59C951.301 202.59 944.148 200.802 937.734 197.225C931.321 193.525 926.203 187.975 922.379 180.575C918.679 173.175 916.829 163.987 916.829 153.01C916.829 142.157 918.741 132.968 922.564 125.445C926.388 117.798 931.691 111.94 938.474 107.87C945.381 103.8 953.089 101.765 961.599 101.765ZM1054.87 55.145V120.635C1057.95 113.728 1062.21 108.857 1067.63 106.02C1073.18 103.183 1079.17 101.765 1085.58 101.765C1090.64 101.765 1094.77 102.443 1097.97 103.8C1101.18 105.157 1103.77 106.883 1105.74 108.98C1107.84 111.323 1109.32 114.345 1110.18 118.045C1111.17 121.745 1111.66 126.74 1111.66 133.03V182.795C1111.66 187.975 1112.59 191.49 1114.44 193.34C1116.41 195.19 1119.68 196.115 1124.24 196.115V200C1122.02 199.877 1118.63 199.753 1114.07 199.63C1109.51 199.383 1105 199.26 1100.56 199.26C1096.12 199.26 1091.75 199.383 1087.43 199.63C1083.11 199.753 1079.84 199.877 1077.62 200V196.115C1081.57 196.115 1084.35 195.19 1085.95 193.34C1087.55 191.49 1088.35 187.975 1088.35 182.795V126.74C1088.35 123.41 1088.05 120.45 1087.43 117.86C1086.81 115.147 1085.58 113.05 1083.73 111.57C1082 109.967 1079.35 109.165 1075.77 109.165C1071.83 109.165 1068.25 110.275 1065.04 112.495C1061.96 114.592 1059.49 117.613 1057.64 121.56C1055.79 125.383 1054.87 129.762 1054.87 134.695V182.795C1054.87 187.975 1055.67 191.49 1057.27 193.34C1059 195.19 1061.78 196.115 1065.6 196.115V200C1063.5 199.877 1060.36 199.753 1056.16 199.63C1052.09 199.383 1047.84 199.26 1043.4 199.26C1038.96 199.26 1034.33 199.383 1029.52 199.63C1024.84 199.753 1021.32 199.877 1018.98 200V196.115C1023.54 196.115 1026.75 195.19 1028.6 193.34C1030.57 191.49 1031.56 187.975 1031.56 182.795V77.345C1031.56 71.795 1030.63 67.725 1028.78 65.135C1027.06 62.4217 1023.79 61.065 1018.98 61.065V57.18C1022.93 57.55 1026.75 57.735 1030.45 57.735C1035.14 57.735 1039.51 57.55 1043.58 57.18C1047.65 56.6867 1051.42 56.0083 1054.87 55.145Z" fill="black"/>
</svg>
